<mxfile host="app.diagrams.net" modified="2024-04-10T12:39:06.768Z" agent="Mozilla/5.0 (Windows NT 10.0; Win64; x64) AppleWebKit/537.36 (KHTML, like Gecko) Chrome/123.0.0.0 Safari/537.36" etag="fXoBi51MLgAOQsBXvqaA" version="24.2.2" type="google">
  <diagram name="Page-1" id="7i0HS5fh59K__IMDZCdu">
    <mxGraphModel grid="1" page="1" gridSize="10" guides="1" tooltips="1" connect="1" arrows="1" fold="1" pageScale="1" pageWidth="827" pageHeight="1169" math="0" shadow="0">
      <root>
        <mxCell id="0" />
        <mxCell id="1" parent="0" />
        <mxCell id="en84tyfOizJZ0K7rBSEd-10" value="pre-purchasing-checks" style="rounded=0;whiteSpace=wrap;html=1;fillColor=#d5e8d4;strokeColor=#82b366;labelPosition=center;verticalLabelPosition=bottom;align=center;verticalAlign=top;fontSize=18;labelBackgroundColor=none;strokeWidth=2;" vertex="1" parent="1">
          <mxGeometry x="-590" y="395" width="472" height="190" as="geometry" />
        </mxCell>
        <mxCell id="en84tyfOizJZ0K7rBSEd-1" value="Key" style="rounded=1;whiteSpace=wrap;html=1;labelPosition=center;verticalLabelPosition=middle;align=center;verticalAlign=top;fontSize=18;labelBackgroundColor=none;strokeWidth=2;" vertex="1" parent="1">
          <mxGeometry x="-770" y="20" width="426" height="310" as="geometry" />
        </mxCell>
        <mxCell id="en84tyfOizJZ0K7rBSEd-2" value="sub system" style="rounded=1;whiteSpace=wrap;html=1;fillColor=#e1d5e7;strokeColor=#9673a6;fontSize=18;strokeWidth=2;labelBackgroundColor=none;" vertex="1" parent="1">
          <mxGeometry x="-750" y="60" width="120" height="60" as="geometry" />
        </mxCell>
        <mxCell id="en84tyfOizJZ0K7rBSEd-6" style="edgeStyle=orthogonalEdgeStyle;rounded=0;orthogonalLoop=1;jettySize=auto;html=1;flowAnimation=0;entryX=0;entryY=0.5;entryDx=0;entryDy=0;entryPerimeter=0;fontSize=18;labelBackgroundColor=none;strokeWidth=2;" edge="1" parent="1" source="en84tyfOizJZ0K7rBSEd-7" target="en84tyfOizJZ0K7rBSEd-15">
          <mxGeometry relative="1" as="geometry">
            <mxPoint x="-478" y="415" as="targetPoint" />
          </mxGeometry>
        </mxCell>
        <mxCell id="en84tyfOizJZ0K7rBSEd-7" value="Purchase Request Handling&amp;nbsp;" style="rounded=1;whiteSpace=wrap;html=1;fillColor=#e1d5e7;strokeColor=#9673a6;fontSize=18;strokeWidth=2;labelBackgroundColor=none;opacity=50;" vertex="1" parent="1">
          <mxGeometry x="-760" y="424" width="120" height="60" as="geometry" />
        </mxCell>
        <mxCell id="en84tyfOizJZ0K7rBSEd-8" value="Code repo" style="rounded=0;whiteSpace=wrap;html=1;fillColor=#d5e8d4;strokeColor=#82b366;fontSize=18;labelBackgroundColor=none;strokeWidth=2;" vertex="1" parent="1">
          <mxGeometry x="-750" y="150" width="120" height="60" as="geometry" />
        </mxCell>
        <mxCell id="en84tyfOizJZ0K7rBSEd-18" value="buffered&lt;div&gt;requests&lt;/div&gt;" style="edgeStyle=orthogonalEdgeStyle;rounded=0;orthogonalLoop=1;jettySize=auto;html=1;entryX=0;entryY=0.5;entryDx=0;entryDy=0;entryPerimeter=0;fontSize=18;labelBackgroundColor=none;strokeWidth=2;align=left;" edge="1" parent="1" source="en84tyfOizJZ0K7rBSEd-15" target="en84tyfOizJZ0K7rBSEd-11">
          <mxGeometry x="-0.4988" y="30" relative="1" as="geometry">
            <mxPoint x="-208" y="455" as="sourcePoint" />
            <mxPoint x="-164" y="455.47058823529414" as="targetPoint" />
            <mxPoint y="1" as="offset" />
          </mxGeometry>
        </mxCell>
        <mxCell id="A8VTY1zA6KB5rll78TfK-1" style="edgeStyle=orthogonalEdgeStyle;rounded=0;orthogonalLoop=1;jettySize=auto;html=1;entryX=0;entryY=0.5;entryDx=0;entryDy=0;strokeWidth=2;" edge="1" parent="1" source="en84tyfOizJZ0K7rBSEd-11" target="B2KNwrcKhyxJ70hqTyCT-1">
          <mxGeometry relative="1" as="geometry" />
        </mxCell>
        <mxCell id="en84tyfOizJZ0K7rBSEd-11" value="Pre-Purchase&lt;div&gt;Check&lt;/div&gt;" style="sketch=0;points=[[0,0,0],[0.25,0,0],[0.5,0,0],[0.75,0,0],[1,0,0],[0,1,0],[0.25,1,0],[0.5,1,0],[0.75,1,0],[1,1,0],[0,0.25,0],[0,0.5,0],[0,0.75,0],[1,0.25,0],[1,0.5,0],[1,0.75,0]];outlineConnect=0;fontColor=#232F3E;gradientColor=#F78E04;gradientDirection=north;fillColor=#D05C17;strokeColor=#ffffff;dashed=0;verticalLabelPosition=bottom;verticalAlign=top;align=center;html=1;fontSize=18;fontStyle=0;aspect=fixed;shape=mxgraph.aws4.resourceIcon;resIcon=mxgraph.aws4.lambda;labelBackgroundColor=none;strokeWidth=2;" vertex="1" parent="1">
          <mxGeometry x="-248" y="424" width="60" height="60" as="geometry" />
        </mxCell>
        <UserObject label="Parent" link="https://judewoodprofessional.atlassian.net/wiki/x/JoAY" id="en84tyfOizJZ0K7rBSEd-14">
          <mxCell style="image;aspect=fixed;html=1;points=[];align=center;fontSize=20;image=img/lib/azure2/general/Launch_Portal.svg;labelBackgroundColor=none;imageBackground=default;strokeWidth=2;" vertex="1" parent="1">
            <mxGeometry x="-27" y="55" width="68" height="67" as="geometry" />
          </mxCell>
        </UserObject>
        <mxCell id="en84tyfOizJZ0K7rBSEd-15" value="Pre-purchase&amp;nbsp;&lt;div&gt;check&amp;nbsp;&lt;/div&gt;&lt;div&gt;queue&lt;/div&gt;" style="sketch=0;points=[[0,0,0],[0.25,0,0],[0.5,0,0],[0.75,0,0],[1,0,0],[0,1,0],[0.25,1,0],[0.5,1,0],[0.75,1,0],[1,1,0],[0,0.25,0],[0,0.5,0],[0,0.75,0],[1,0.25,0],[1,0.5,0],[1,0.75,0]];outlineConnect=0;fontColor=#232F3E;fillColor=#E7157B;strokeColor=#ffffff;dashed=0;verticalLabelPosition=bottom;verticalAlign=top;align=center;html=1;fontSize=18;fontStyle=0;aspect=fixed;shape=mxgraph.aws4.resourceIcon;resIcon=mxgraph.aws4.sqs;labelBackgroundColor=none;strokeWidth=2;" vertex="1" parent="1">
          <mxGeometry x="-510" y="425" width="59" height="59" as="geometry" />
        </mxCell>
        <mxCell id="en84tyfOizJZ0K7rBSEd-20" value="AWS DynamoDb" style="shape=image;html=1;verticalAlign=top;verticalLabelPosition=bottom;imageAspect=0;aspect=fixed;image=https://cdn2.iconfinder.com/data/icons/amazon-aws-stencils/100/Database_copy_DynamoDB-128.png;fontSize=18;labelBackgroundColor=none;strokeWidth=2;" vertex="1" parent="1">
          <mxGeometry x="-714" y="220" width="68" height="68" as="geometry" />
        </mxCell>
        <mxCell id="en84tyfOizJZ0K7rBSEd-24" value="Get&lt;div&gt;Item&amp;nbsp;&lt;/div&gt;&lt;div style=&quot;&quot;&gt;status&lt;/div&gt;" style="edgeStyle=orthogonalEdgeStyle;rounded=0;orthogonalLoop=1;jettySize=auto;html=1;fontSize=18;labelBackgroundColor=none;strokeWidth=2;align=left;startArrow=none;startFill=0;entryX=0.5;entryY=0;entryDx=0;entryDy=0;entryPerimeter=0;" edge="1" parent="1" source="en84tyfOizJZ0K7rBSEd-23" target="en84tyfOizJZ0K7rBSEd-11">
          <mxGeometry x="-0.2061" y="8" relative="1" as="geometry">
            <mxPoint as="offset" />
          </mxGeometry>
        </mxCell>
        <mxCell id="en84tyfOizJZ0K7rBSEd-23" value="Listed Items&lt;div&gt;table&lt;/div&gt;" style="shape=image;html=1;verticalAlign=bottom;verticalLabelPosition=top;imageAspect=0;aspect=fixed;image=https://cdn2.iconfinder.com/data/icons/amazon-aws-stencils/100/Database_copy_DynamoDB-128.png;fontSize=18;labelBackgroundColor=none;strokeWidth=2;labelPosition=center;align=center;" vertex="1" parent="1">
          <mxGeometry x="-262" y="205" width="88" height="88" as="geometry" />
        </mxCell>
        <mxCell id="en84tyfOizJZ0K7rBSEd-33" value="Request&amp;nbsp;&lt;div&gt;status&amp;nbsp;&lt;/div&gt;&lt;div&gt;update&lt;/div&gt;" style="edgeStyle=orthogonalEdgeStyle;rounded=0;orthogonalLoop=1;jettySize=auto;html=1;entryX=0;entryY=0.5;entryDx=0;entryDy=0;strokeWidth=2;flowAnimation=0;dashed=1;exitX=1;exitY=0.5;exitDx=0;exitDy=0;exitPerimeter=0;labelBackgroundColor=none;fontSize=18;" edge="1" parent="1" source="en84tyfOizJZ0K7rBSEd-11" target="B2KNwrcKhyxJ70hqTyCT-1">
          <mxGeometry x="0.2308" y="39" relative="1" as="geometry">
            <mxPoint x="188" y="404" as="sourcePoint" />
            <mxPoint x="270" y="404" as="targetPoint" />
            <mxPoint as="offset" />
          </mxGeometry>
        </mxCell>
        <mxCell id="B2KNwrcKhyxJ70hqTyCT-1" value="Item Status Update" style="rounded=1;whiteSpace=wrap;html=1;fillColor=#e1d5e7;strokeColor=#9673a6;fontSize=18;strokeWidth=2;labelBackgroundColor=none;opacity=50;" vertex="1" parent="1">
          <mxGeometry x="20" y="419" width="120" height="70" as="geometry" />
        </mxCell>
        <mxCell id="B2KNwrcKhyxJ70hqTyCT-2" value="AWS Lambda" style="sketch=0;points=[[0,0,0],[0.25,0,0],[0.5,0,0],[0.75,0,0],[1,0,0],[0,1,0],[0.25,1,0],[0.5,1,0],[0.75,1,0],[1,1,0],[0,0.25,0],[0,0.5,0],[0,0.75,0],[1,0.25,0],[1,0.5,0],[1,0.75,0]];outlineConnect=0;fontColor=#232F3E;gradientColor=#F78E04;gradientDirection=north;fillColor=#D05C17;strokeColor=#ffffff;dashed=0;verticalLabelPosition=bottom;verticalAlign=top;align=center;html=1;fontSize=18;fontStyle=0;aspect=fixed;shape=mxgraph.aws4.resourceIcon;resIcon=mxgraph.aws4.lambda;labelBackgroundColor=none;strokeWidth=2;" vertex="1" parent="1">
          <mxGeometry x="-584" y="60" width="60" height="60" as="geometry" />
        </mxCell>
        <mxCell id="B2KNwrcKhyxJ70hqTyCT-3" value="AWS SQS" style="sketch=0;points=[[0,0,0],[0.25,0,0],[0.5,0,0],[0.75,0,0],[1,0,0],[0,1,0],[0.25,1,0],[0.5,1,0],[0.75,1,0],[1,1,0],[0,0.25,0],[0,0.5,0],[0,0.75,0],[1,0.25,0],[1,0.5,0],[1,0.75,0]];outlineConnect=0;fontColor=#232F3E;fillColor=#E7157B;strokeColor=#ffffff;dashed=0;verticalLabelPosition=bottom;verticalAlign=top;align=center;html=1;fontSize=18;fontStyle=0;aspect=fixed;shape=mxgraph.aws4.resourceIcon;resIcon=mxgraph.aws4.sqs;labelBackgroundColor=none;strokeWidth=2;" vertex="1" parent="1">
          <mxGeometry x="-594" y="170" width="59" height="59" as="geometry" />
        </mxCell>
        <mxCell id="B2KNwrcKhyxJ70hqTyCT-4" value="DynamoDb TTL&lt;br&gt;&amp;nbsp;period" style="shape=image;html=1;verticalAlign=top;verticalLabelPosition=bottom;labelBackgroundColor=none;imageAspect=0;aspect=fixed;image=https://cdn1.iconfinder.com/data/icons/icons-for-a-site-1/64/advantage_speed-128.png;fontSize=16;" vertex="1" parent="1">
          <mxGeometry x="-480" y="166" width="63" height="63" as="geometry" />
        </mxCell>
        <mxCell id="B2KNwrcKhyxJ70hqTyCT-5" value="&lt;div style=&quot;font-size: 18px;&quot;&gt;367 Days&amp;nbsp;&lt;br style=&quot;font-size: 18px;&quot;&gt;&lt;/div&gt;" style="shape=image;html=1;verticalAlign=top;verticalLabelPosition=bottom;labelBackgroundColor=none;imageAspect=0;aspect=fixed;image=https://cdn1.iconfinder.com/data/icons/icons-for-a-site-1/64/advantage_speed-128.png;fontSize=18;" vertex="1" parent="1">
          <mxGeometry x="-290" y="240" width="63" height="63" as="geometry" />
        </mxCell>
        <mxCell id="B2KNwrcKhyxJ70hqTyCT-9" value="connecting diagram" style="rounded=1;whiteSpace=wrap;html=1;fillColor=#e1d5e7;strokeColor=#9673a6;fontSize=18;strokeWidth=2;labelBackgroundColor=none;fillStyle=auto;opacity=50;" vertex="1" parent="1">
          <mxGeometry x="-490" y="60" width="120" height="60" as="geometry" />
        </mxCell>
      </root>
    </mxGraphModel>
  </diagram>
</mxfile>
